<svg xmlns="http://www.w3.org/2000/svg" viewBox="0 0 50 50" id="website-builder"><path fill="#2e4277" d="m22.459 37.095-.005 1.172c0 .203-.134.405-.4.559l-5.966 3.467c-.535.311-1.405.311-1.943 0l-6.006-3.467c-.27-.156-.406-.361-.405-.566l.005-1.172c0 .204.135.41.405.565l6.006 3.468c.538.31 1.408.31 1.943 0l5.966-3.468c.266-.154.4-.356.4-.558z"></path><path fill="#384e85" d="M22.053 36.528c.538.31.541.814.006 1.125l-5.966 3.468c-.535.31-1.405.31-1.943 0l-6.006-3.468c-.538-.31-.54-.814-.006-1.125l5.967-3.467c.534-.311 1.404-.311 1.942 0l6.006 3.467z"></path><path fill="#2e4277" d="M19.72 36.842c.238.137.239.36.002.497l-4.179 2.429a.947.947 0 0 1-.859 0l-4.206-2.428c-.238-.138-.24-.36-.003-.498l4.179-2.429a.947.947 0 0 1 .86 0l4.206 2.429z"></path><path fill="#3955d1" d="m10.349 3.348-.002 3.234L7.736 8.1l.002-3.235z"></path><path fill="#4466fb" d="M7.738 4.865 7.736 8.1 5.105 6.581l.002-3.234z"></path><path fill="#6bb5fb" d="M10.349 3.348 7.738 4.865 5.107 3.347l2.611-1.518z"></path><path fill="#384e85" d="m14.654 25.927.063.079.379-.209-1.536-1.88 1.022-.129.039-.022.064.078.378-.208-1.541-1.889 1.067-.135.039-.022.063.079.379-.209-1.542-1.888 1.067-.136.039-.021.064.078.378-.208-1.541-1.889 1.067-.135.039-.022.063.079.379-.209-1.542-1.889 1.067-.135.039-.022.064.079.378-.209-1.541-1.888 1.067-.135.039-.022.063.078.379-.208-1.646-2.016-.378.208 1.475 1.808-1.17.148-.378.209.269-.035-.166.091 1.439 1.762-1.17.149-.379.208.269-.034-.165.091 1.438 1.762-1.17.148-.378.209.269-.034-.166.09 1.439 1.763-1.17.148-.379.208.269-.034-.165.091 1.438 1.762-1.17.148-.378.209.269-.034-.166.091 1.439 1.762-1.133.144-.378.207.092-.011-.024.013 1.475 1.808-1.17.148-.378.209.269-.034-.166.091 1.439 1.762-1.17.148-.379.209.269-.035-.165.091 1.438 1.762-1.17.149-.378.208.269-.034-.166.091 1.439 1.762-1.17.148-.379.209.269-.034-.165.09 1.438 1.762-1.17.149-.378.208.269-.034-.166.091 1.439 1.762-1.133.144-.378.208 1.578-.2.039-.022.064.079.378-.209-1.541-1.888 1.067-.136.039-.021.063.078.379-.209-1.542-1.888 1.067-.135.039-.022.064.078.378-.208-1.541-1.889 1.067-.135.039-.022.063.079.379-.209-1.542-1.888 1.067-.135.039-.022.064.078.378-.208-1.541-1.889 1.067-.135z"></path><path fill="#384e85" d="m16.912 34.856-.269-.034.166.091-1.44 1.762 1.134.144.378.208-1.578-.2-.039-.022-.064.078-.378-.208 1.542-1.889-1.067-.135-.04-.022-.063.079-.379-.209 1.543-1.888-1.068-.135-.039-.022-.064.079-.378-.209 1.541-1.888-1.067-.136-.039-.021-.064.078-.378-.208 1.542-1.889-1.067-.135-.039-.022-.064.078-.378-.208 1.542-1.889-1.067-.135-.04-.022-.063.079-.379-.209 1.536-1.88-1.022-.129-.039-.022-.064.079-.378-.21 1.542-1.888-1.067-.135-.04-.022-.063.079-.379-.209 1.543-1.888-1.068-.136-.039-.021-.064.078-.378-.208 1.541-1.889-1.067-.135-.039-.022-.064.078-.378-.208 1.542-1.889-1.067-.134-.039-.022-.064.078-.378-.209 1.542-1.888-1.067-.135-.04-.022-.063.079-.379-.21 1.647-2.015.378.208-1.476 1.807 1.17.149.378.208-.269-.034.166.091-1.439 1.762 1.17.149.379.208-.269-.034.165.091-1.439 1.762 1.171.148.378.209-.269-.034.165.091-1.438 1.762 1.171.147.378.21-.269-.035.165.091-1.438 1.762 1.17.148.378.209-.269-.034.166.09-1.44 1.762 1.134.144.378.209-.091-.012.024.013-1.476 1.808 1.17.149.378.208-.269-.034.166.091-1.439 1.762 1.17.148.379.209-.269-.034.165.09-1.439 1.763 1.171.147.378.209-.269-.034.165.09-1.438 1.763 1.171.148.378.208-.269-.034.165.091-1.438 1.762 1.17.149z"></path><path fill="#1b2a4f" d="m14.718 26.006-1.615.205 1.608 1.97-1.615.205 1.608 1.97-1.614.206 1.608 1.97-1.615.206 1.609 1.97-1.615.205 1.608 1.97-1.653.21-.028-.066 1.578-.2-1.61-1.971 1.616-.205-1.609-1.971 1.616-.204-1.609-1.971 1.616-.205-1.609-1.97 1.615-.205-1.609-1.971 1.615-.205-1.549-1.899-.033.004-.028-.066 1.578-.2-1.61-1.971 1.616-.205-1.609-1.97 1.616-.206-1.609-1.97 1.616-.205-1.609-1.971 1.615-.205-1.609-1.97 1.615-.205-1.571-1.925.028-.035 1.647 2.016-1.615.206 1.608 1.97-1.615.205 1.608 1.97-1.614.206 1.608 1.97-1.615.205 1.609 1.97-1.615.206 1.608 1.97-1.571.199zM16.912 34.856l-1.609 1.971 1.578.2-.028.066-1.653-.21 1.609-1.97-1.616-.205 1.609-1.97-1.615-.206 1.608-1.97-1.615-.206 1.609-1.97-1.615-.205 1.608-1.97-1.615-.205 1.603-1.963-1.57-.199 1.609-1.97-1.616-.206 1.609-1.97-1.615-.205 1.608-1.97-1.615-.206 1.609-1.97-1.615-.205 1.608-1.97-1.615-.206 1.647-2.016.028.035-1.571 1.925 1.616.205-1.61 1.97 1.615.205-1.608 1.971 1.615.205-1.609 1.97 1.616.206-1.609 1.97 1.615.205-1.609 1.971 1.578.2-.028.066-.032-.004-1.55 1.899 1.616.205-1.61 1.971 1.615.205-1.608 1.97 1.615.205-1.609 1.971 1.616.204-1.609 1.971z"></path><path fill="#384e85" d="m14.636 23.638.307-.144.306.143-.306.144zM16.453 22.783l.306-.144.307.143-.306.144z"></path><path fill="#2e4277" d="M16.759 24.272v13.431l-.309-.143V24.129z"></path><path fill="#384e85" d="m13.432 22.783-.306-.144-.307.143.306.144z"></path><path fill="#1b2a4f" d="M15.251 10.598v28.036l-.309.149V10.741z"></path><path fill="#384e85" d="m14.636 10.599.307-.145.306.144-.306.144z"></path><path fill="#2e4277" d="M14.942 10.741v28.042l-.309-.149.007-28.036z"></path><path fill="#1b2a4f" d="M17.068 9.745V37.56l-.309.143V9.888z"></path><path fill="#384e85" d="m16.453 9.744.306-.145.307.144-.306.144z"></path><path fill="#2e4277" d="M16.759 9.888v14.384l-.309-.143V9.745z"></path><path fill="#1b2a4f" d="M13.124 9.888v27.815l-.302-.143V9.745z"></path><path fill="#384e85" d="m13.432 9.744-.306-.145-.307.144.306.144z"></path><path fill="#2e4277" d="M13.433 9.745V37.56l-.309.143V9.888z"></path><path fill="#8ca1fd" d="m14.955 9.197-.003 2.838 3.169-1.842.002-2.838z"></path><path fill="#b7c5fd" d="m14.955 9.197-.003 2.838-3.191-1.843.002-2.838z"></path><path fill="#d9ddf6" d="m18.123 7.355-3.168 1.842-3.192-1.843 3.168-1.841z"></path><path fill="#b7c5fd" d="M23.116 15.233c.121-.07.29-.06.475.047l21.02 12.135c.37.214.668.731.667 1.155l-.036 17.377c0 .21-.075.359-.195.428l-.876.51c.12-.07.195-.218.195-.429l.036-17.377c.001-.424-.297-.941-.668-1.155L22.715 15.79c-.185-.107-.354-.117-.475-.047l.876-.509z"></path><path fill="#9aadfd" d="M22.715 15.789c-.369-.213-.669-.042-.67.382l-.036 17.377c-.001.424.297.941.666 1.154l21.02 12.136c.37.213.67.042.671-.382l.036-17.377c.001-.424-.297-.941-.668-1.155L22.715 15.79z"></path><path fill="#d9ddf6" d="m22.874 18.292-.029 15.547L43.53 45.781l.029-15.547z"></path><path fill="#fff" d="M25.418 18.28c-.19-.109-.344-.021-.344.196 0 .218.152.482.342.592.188.108.342.022.343-.196a.754.754 0 0 0-.341-.592zm-2.2-1.27c-.189-.109-.343-.02-.344.197 0 .218.153.482.342.591.189.109.343.022.344-.195a.754.754 0 0 0-.341-.592zm1.1.635c-.19-.109-.343-.021-.344.197 0 .217.153.481.342.59.19.11.343.023.343-.195a.752.752 0 0 0-.34-.592z"></path><path fill="#384e85" d="m32.6 25.229.251.145a.497.497 0 0 1 .406.026l-.25-.145a.497.497 0 0 0-.406-.026zM32.474 26.002l-.006-2.333.378-.218-.25-.146-.379.219.006 2.332z"></path><path fill="#d9ddf6" d="M33.123 26.154c0-.144-.051-.246-.133-.293l-.25-.146c.082.048.133.15.133.293 0 .19-.092.404-.224.573.073.062.14.135.193.222.166-.176.282-.43.281-.65z"></path><path fill="#1b2a4f" d="M33.5 25.936c0-.455-.278-.678-.649-.562l-.005-1.923-.378.218.006 2.333.189-.11c.253-.145.46-.029.46.262.001.218-.115.473-.28.649a.95.95 0 0 1 .126.335c.312-.32.533-.795.532-1.202z"></path><path fill="#d9ddf6" d="m33.19 27.355-.33.194c-.08.047-.194.037-.316-.034-.246-.141-.444-.486-.44-.769 0-.136.048-.23.128-.278l.33-.193c-.08.047-.127.141-.127.278a.98.98 0 0 0 .444.769c.122.07.23.08.311.033z"></path><path fill="#6bb5fb" d="m39.11 30.075-.009 4.18c-.005.213-.075.364-.198.43l-.33.194c.118-.066.193-.217.193-.43l.014-4.18c0-.425-.297-.944-.67-1.16l-11.123-6.423c-.184-.104-.354-.113-.477-.042l.335-.194c.123-.07.288-.061.472.043l11.123 6.422c.373.217.67.736.67 1.16z"></path><path fill="#4466fb" d="M38.109 29.11c.373.215.67.734.67 1.16l-.013 4.178c0 .429-.3.6-.674.384L26.97 28.41c-.368-.212-.668-.729-.667-1.158l.012-4.178c.001-.426.303-.598.67-.386L38.11 29.11zm-5.565-1.594c.247.143.444.024.444-.256a.963.963 0 0 0-.441-.761c-.244-.141-.443-.031-.444.25-.001.28.197.626.441.767"></path><path fill="#384e85" d="M32.65 26.581a.856.856 0 0 1-.234.22.422.422 0 0 1-.19.06l.01-.01-.25-.145-.354.358c.043.104.108.18.189.227l.25.145a.452.452 0 0 1-.189-.227l.313-.316.144.083c.085.05.203.042.327-.03a.789.789 0 0 0 .176-.143.946.946 0 0 0-.193-.222z"></path><path fill="#1b2a4f" d="M32.666 26.946c-.19.11-.363.071-.43-.095l-.354.358c.124.302.438.37.785.17.107-.061.208-.145.302-.242a.95.95 0 0 0-.127-.334.79.79 0 0 1-.176.143z"></path><path fill="#fff" d="m27.222 25.393-.016 2.467 10.871 6.276.015-2.466zM37.791 29.923c-.167-.096-.303-.019-.303.173s.134.426.302.522c.166.096.302.02.302-.172s-.134-.427-.3-.523zm-1.94-1.12c-.168-.097-.304-.02-.305.173s.135.425.302.522c.167.096.303.019.303-.173a.665.665 0 0 0-.3-.522zm.97.56c-.167-.097-.303-.02-.304.173s.135.425.302.522.302.02.303-.173-.134-.426-.301-.522z"></path><path fill="#1b2a4f" d="m33.703 23.04.711-.413-.918 1.63-.711.413z"></path><path fill="#1b2a4f" d="m33.082 21.555.71-.413.622 1.485-.711.413z"></path><path fill="#384e85" d="m31.518 20.652.71-.413 1.564.903-.71.413z"></path><path fill="#2e4277" d="m33.082 21.555.621 1.485-.918 1.63-.991-.572-.904-2.682.628-.764zM32.923 18.198c.02.02.02.038 0 .076v2.63c0 .038-.018.075-.056.113a.402.402 0 0 1-.36 0c-.056-.038-.075-.075-.075-.113v-2.686c0-.038.02-.076.076-.114a.402.402 0 0 1 .359 0c.056.038.075.056.056.094z"></path><path fill="#1b2a4f" d="m32.886 17.786.906-.527-.002.928-.906.527z"></path><path fill="#384e85" d="M4.725 1.527 5.631 1l28.161 16.259-.906.527z"></path><path fill="#2e4277" d="m32.886 17.786-.002.928L4.722 2.455l.003-.928z"></path><path fill="#4466fb" d="M27.205 43.65v1.146c0 .105-.07.204-.204.288l-3.416 1.982c-.274.154-.716.154-.997 0l-3.43-1.982c-.14-.084-.21-.19-.21-.295l.006-1.146c0 .106.07.211.204.296l3.437 1.974c.274.162.723.162.99.007l3.416-1.988c.14-.078.204-.176.204-.282z"></path><path fill="#6bb5fb" d="M26.996 43.357c.278.161.28.42.008.578l-3.415 1.984c-.272.158-.72.158-.997-.002l-3.433-1.982c-.274-.158-.275-.417-.003-.575l3.414-1.984c.272-.158.72-.158.993 0l3.433 1.981z"></path><path fill="#fff" d="m23.526 42.497.814 1.846-3.188-.466z"></path><path fill="#8ca1fd" d="M36.669 45.469v1.145c0 .106-.07.204-.204.288l-3.416 1.982c-.274.155-.716.155-.997 0l-3.43-1.982c-.14-.084-.21-.19-.21-.295l.006-1.145c0 .105.07.21.204.295l3.437 1.975c.274.161.723.161.99.007l3.416-1.99c.14-.077.204-.175.204-.28z"></path><path fill="#b7c5fd" d="M36.46 45.176c.278.16.28.42.008.577l-3.415 1.985c-.272.158-.72.158-.997-.003l-3.433-1.982c-.274-.158-.275-.417-.003-.575l3.414-1.984c.272-.158.72-.158.993 0l3.433 1.982z"></path><path fill="#6bb5fb" d="m27.842 30.841-2.804-1.618a.536.536 0 0 0-.804.463l-.006 2.798c0 .384.204.74.537.932l2.803 1.618a.536.536 0 0 0 .805-.464l.005-2.798c0-.384-.204-.739-.536-.93z"></path><path fill="#4466fb" d="m34.14 34.477-2.804-1.618a.536.536 0 0 0-.805.463l-.005 2.798c0 .384.204.74.536.932l2.804 1.618a.536.536 0 0 0 .804-.463l.006-2.799c0-.384-.204-.739-.537-.93z"></path><path fill="#3955d1" d="m40.437 38.113-2.803-1.618a.536.536 0 0 0-.805.463l-.005 2.798c-.001.384.204.74.536.932l2.803 1.618a.536.536 0 0 0 .805-.463l.005-2.799c.001-.384-.203-.739-.536-.93z"></path></svg>